<svg viewBox="0 0 512 512" xmlns="http://www.w3.org/2000/svg">
  <rect width="512" height="512" rx="96" fill="#00F0A0"/>
  <g transform="translate(56, 36) scale(3.2)">
    <path d="
      M 62 10
      C 56 6, 46 6, 40 10
      C 34 14, 30 22, 30 30
      C 30 36, 32 40, 34 44
      C 32 44, 28 42, 22 40
      L 16 38
      C 12 37, 12 40, 16 41
      L 28 46
      C 32 48, 34 48, 34 48
      C 32 52, 30 58, 30 64
      C 30 70, 32 76, 36 82
      C 38 86, 38 90, 36 96
      C 34 100, 30 106, 26 112
      C 22 118, 20 122, 18 128
      C 16 134, 18 136, 20 134
      C 24 128, 28 122, 32 116
      C 36 110, 38 104, 40 98
      C 42 94, 42 90, 42 86
      C 44 88, 48 88, 52 86
      C 52 90, 50 96, 48 102
      C 46 108, 44 114, 44 120
      C 42 126, 44 128, 46 126
      C 48 120, 50 112, 52 104
      C 54 96, 54 90, 52 84
      C 56 80, 60 74, 62 68
      C 64 72, 68 76, 74 78
      C 80 80, 86 82, 92 82
      C 98 82, 104 78, 108 74
      C 112 68, 112 64, 108 62
      C 106 66, 100 70, 94 72
      C 86 74, 78 72, 70 68
      C 64 64, 60 58, 58 50
      C 58 44, 60 36, 64 30
      C 68 24, 72 20, 72 16
      C 70 12, 66 10, 62 10
      Z
    " fill="white"/>
    <circle cx="48" cy="24" r="4" fill="#00F0A0"/>
    <circle cx="49" cy="23.5" r="1.5" fill="white"/>
  </g>
</svg>